<svg width="1707" height="1086" viewBox="0 0 1707 1086" fill="none" xmlns="http://www.w3.org/2000/svg">
<g clip-path="url(#clip0_1_2)">
<path d="M319.333 0.933309C288.933 4.66664 254.933 22.8 236.533 45.0666C220.133 65.0666 207.6 93.0666 202.533 121.733L200.8 130.933L189.467 140.667C143.333 179.867 109.467 229.733 92.2667 284C83.3333 311.867 80 332.667 78.6667 367.333C77.7333 393.467 77.6 394.8 68.1333 440C32.5333 610.4 13.0666 725.067 3.19998 822C0.399982 849.467 -1.80992e-05 891.333 2.39998 905.333C5.73332 924.267 10.6666 945.067 14.1333 954.933C30.5333 1000.4 68.9333 1041.6 116.667 1064.67C166.533 1088.8 219.6 1091.73 274.8 1073.33C329.6 1055.2 375.067 1018.27 414.533 960C430.267 936.8 440.267 919.067 472.4 858C488.533 827.2 502 801.867 502.133 801.6C502.267 801.333 506 804 510.267 807.467C534.533 827.333 567.733 842.533 597.333 847.333C623.067 851.467 654.933 849.467 680.533 842C728.667 828.133 776 788 797.467 742.933L801.467 734.667H853.333H905.2L909.2 742.933C914.533 754.133 927.467 773.467 936.267 783.467C974 826.133 1024.13 849.333 1078.67 849.333C1121.6 849.2 1157.2 837.333 1192.67 811.067C1199.07 806.4 1204.8 802.933 1205.33 803.6C1205.87 804.133 1219.07 828.933 1234.67 858.667C1265.73 917.867 1276.53 936.933 1292.13 960C1319.47 1000.4 1349.33 1030.27 1382.93 1050.8C1439.47 1085.33 1504.13 1094.27 1562.67 1075.73C1621.47 1057.07 1672.93 1009.2 1692.53 954.933C1696 945.067 1700.93 924.267 1704.27 905.333C1706.67 891.333 1706.27 849.467 1703.47 822C1693.07 719.867 1674.93 615.067 1632 406.933C1628.8 391.733 1628 384.533 1628 371.2C1628 284 1588.13 200.933 1517.2 140.667L1505.87 130.933L1504.13 121.733C1500.53 101.867 1492.27 79.2 1482.53 62.6666C1465.47 33.8666 1437.73 13.4666 1402.67 3.86664C1389.2 0.133309 1355.07 -0.533357 1277.33 1.19998C1226 2.26664 1216.4 2.79998 1206 5.06664C1168.93 13.3333 1134.8 33.3333 1114.27 58.6666C1098.13 78.8 1087.33 108.267 1083.33 144.267L1082.53 152H852.667H622.933L621.333 138.267C618 109.6 610.267 85.3333 598.267 66.9333C579.733 38.4 541.867 14.2666 500.933 5.19998C490.533 2.79998 481.333 2.26664 439.333 1.33331C389.333 0.266643 326.667 -2.40479e-05 319.333 0.933309Z" fill="white" fill-opacity="0.8"/>
</g>
<defs>
<clipPath id="clip0_1_2">
<rect width="1706.67" height="1085.33" fill="white"/>
</clipPath>
</defs>
</svg>
